<svg width="24" height="24" viewBox="0 0 24 24" fill="none" xmlns="http://www.w3.org/2000/svg">
<g id="akar-icons:whatsapp-fill" clip-path="url(#clip0_1_29)">
<g id="Group">
<g id="Clip path group">
<mask id="mask0_1_29" style="mask-type:luminance" maskUnits="userSpaceOnUse" x="0" y="0" width="24" height="24">
<g id="akarIconsWhatsappFill0">
<path id="Vector" d="M0 0H24V24H0V0Z" fill="white"/>
</g>
</mask>
<g mask="url(#mask0_1_29)">
<g id="Group_2">
<path id="Vector_2" fill-rule="evenodd" clip-rule="evenodd" d="M17.415 14.382C17.117 14.233 15.656 13.515 15.384 13.415C15.112 13.315 14.914 13.267 14.715 13.565C14.517 13.862 13.948 14.531 13.775 14.729C13.601 14.928 13.428 14.952 13.131 14.804C12.834 14.654 11.876 14.341 10.741 13.329C9.858 12.541 9.261 11.568 9.088 11.27C8.915 10.973 9.069 10.812 9.218 10.664C9.352 10.531 9.515 10.317 9.664 10.144C9.813 9.97103 9.862 9.84603 9.961 9.64703C10.061 9.44903 10.011 9.27603 9.936 9.12703C9.862 8.97803 9.268 7.51503 9.02 6.92003C8.779 6.34103 8.534 6.42003 8.352 6.41003C8.178 6.40203 7.98 6.40003 7.782 6.40003C7.584 6.40003 7.262 6.47403 6.99 6.77203C6.717 7.06903 5.95 7.78803 5.95 9.25103C5.95 10.713 7.014 12.126 7.163 12.325C7.312 12.524 9.258 15.525 12.239 16.812C12.949 17.118 13.502 17.301 13.933 17.437C14.645 17.664 15.293 17.632 15.805 17.555C16.375 17.47 17.563 16.836 17.811 16.142C18.059 15.448 18.058 14.853 17.984 14.729C17.91 14.605 17.712 14.531 17.414 14.382M11.992 21.785H11.988C10.2174 21.7854 8.47937 21.3094 6.956 20.407L6.596 20.193L2.854 21.175L3.853 17.527L3.618 17.153C2.62809 15.5774 2.10424 13.7538 2.107 11.893C2.109 6.44303 6.543 2.00903 11.996 2.00903C13.2948 2.00509 14.5814 2.25934 15.781 2.75702C16.9807 3.2547 18.0694 3.98587 18.984 4.90803C19.9045 5.82433 20.6341 6.91412 21.1305 8.11431C21.6269 9.3145 21.8803 10.6012 21.876 11.9C21.874 17.35 17.44 21.785 11.992 21.785ZM20.404 3.48803C19.3021 2.3793 17.9913 1.50013 16.5474 0.901413C15.1035 0.302696 13.5551 -0.0036753 11.992 3.32698e-05C5.438 3.32698e-05 0.102 5.33503 0.1 11.892C0.096774 13.9788 0.644198 16.0295 1.687 17.837L0 24L6.304 22.346C8.04817 23.2954 10.0022 23.7932 11.988 23.794H11.993C18.547 23.794 23.883 18.459 23.885 11.901C23.8899 10.3383 23.5848 8.79011 22.9875 7.34603C22.3902 5.90196 21.5124 4.59067 20.405 3.48803" fill="white"/>
</g>
</g>
</g>
</g>
</g>
<defs>
<clipPath id="clip0_1_29">
<rect width="24" height="24" fill="white"/>
</clipPath>
</defs>
</svg>
