<svg width="24" height="24" viewBox="0 0 24 24" fill="none" xmlns="http://www.w3.org/2000/svg">
<g id="iconoir:phone-solid">
<path id="Vector" fill-rule="evenodd" clip-rule="evenodd" d="M4.063 1.25H7.814C7.96655 1.25 8.11548 1.29652 8.24091 1.38336C8.36633 1.47019 8.4623 1.59321 8.516 1.736L9.972 5.606C10.02 5.73398 10.0321 5.87264 10.007 6.007L9.277 9.919C10.174 12.027 11.655 13.444 14.11 14.715L17.975 13.965C18.1123 13.9385 18.2544 13.951 18.385 14.001L22.267 15.481C22.4089 15.5351 22.5311 15.6309 22.6173 15.7559C22.7036 15.8809 22.7498 16.0291 22.75 16.181V19.765C22.75 21.391 21.318 22.71 19.642 22.345C16.589 21.681 10.932 19.992 6.97 16.03C3.174 12.235 1.902 6.993 1.475 4.16C1.23 2.542 2.527 1.25 4.063 1.25Z" fill="white"/>
</g>
</svg>
